inDegrees=yes
name=ik_S52_A09_T02
DataType=double
version=3
OpenSimVersion=4.3-2021-08-27-4bc7ad9
endheader
time	pelvis_tilt	pelvis_list	pelvis_rotation	pelvis_tx	pelvis_ty	pelvis_tz	hip_flexion_r	hip_adduction_r	hip_rotation_r	knee_angle_r	knee_angle_r_beta	ankle_angle_r	subtalar_angle_r	mtp_angle_r	hip_flexion_l	hip_adduction_l	hip_rotation_l	knee_angle_l	knee_angle_l_beta	ankle_angle_l	subtalar_angle_l	mtp_angle_l	lumbar_extension	lumbar_bending	lumbar_rotation	arm_flex_r	arm_add_r	arm_rot_r	elbow_flex_r	pro_sup_r	wrist_flex_r	wrist_dev_r	arm_flex_l	arm_add_l	arm_rot_l	elbow_flex_l	pro_sup_l	wrist_flex_l	wrist_dev_l
0	0	0	0	0	0.9399999999999999	0	0	0	0	0	0	0	0	0	0	0	0	0	0	0	0	0	0	0	0	0	0	0	0	89.99999999963507	0	0	0	0	0	0	89.99999999869995	0	0
0.02	-5.609844048866261	-0.4681595910234018	21.30950433084184	0	0.9399999999999999	0	3.363054999498639	-1.574510508634274	-1.132719537659445	5.208269205481557	0.09090144596588226	0	0	0	3.363054999498639	-1.574510508634274	-1.132719537659445	5.208269205481557	0.09090144596588226	0	0	0	-1.986676441974732	-2.69958900626511	3.58560977949447	30.94644294192861	-5.348174668258554	-4.90322304908267	41.18441110512187	151.3780861485669	0	0	24.33834494931193	-10.64551206097157	-6.58839276849248	46.80769223225117	128.174405144934	0	0
0.04	-5.580979172897699	-0.4570845688202541	21.29525869506778	0	0.9399999999999999	0	3.544940985916327	-1.676152089337144	-1.195894169607319	5.467774954293946	0.09543067571051182	0	0	0	3.544940985916327	-1.676152089337144	-1.195894169607319	5.467774954293946	0.09543067571051182	0	0	0	-1.961364055298478	-2.692923913823404	3.586368602252722	30.89507423386795	-5.372418893131526	-4.881027030064407	41.21039422243172	151.2832791453577	0	0	24.28619953441288	-10.63853676750309	-6.574847308735997	46.81959721028735	128.216054044785	0	0
0.06	-5.019929575629516	-0.695601321694563	21.38500637934163	0	0.9399999999999999	0	34.52177331368313	-15.64080948756289	-10.93865586366367	48.26037937173523	0.8423025182983321	0	0	0	34.52177331368313	-15.64080948756289	-10.93865586366367	48.26037937173523	0.8423025182983321	0	0	0	-2.358793463038786	-2.249100120095354	3.509503351917722	30.85318604825991	-5.378965734516131	-4.874064340149313	41.20675420098532	151.335691837663	0	0	24.25295823684851	-10.62154419269587	-6.567990173322528	46.79813755549663	128.1565421700158	0	0
0.08	-5.011296106466051	-0.6983801972139073	21.37858405912474	0	0.9399999999999999	0	34.52733416088726	-15.63474090063714	-10.93780234798081	48.262984993038	0.8423479949691256	0	0	0	34.52733416088726	-15.63474090063714	-10.93780234798081	48.262984993038	0.8423479949691256	0	0	0	-2.352738287381488	-2.253714015759682	3.513266885020708	30.83432409751404	-5.345746157456557	-4.897633923977819	41.19564214419691	151.3559699996061	0	0	24.22926579011332	-10.58984457468867	-6.564115666244807	46.79117168911369	128.1892630302242	0	0
0.1	-5.018691460637248	-0.7062320950193873	21.38090983365942	0	0.9399999999999999	0	34.55308591192213	-15.60108457321328	-10.93356134239687	48.27470639890063	0.8425525720943911	0	0	0	34.55308591192213	-15.60108457321328	-10.93356134239687	48.27470639890063	0.8425525720943911	0	0	0	-2.367073505825839	-2.252368004976511	3.5121154457213	30.838377798522	-5.367849075148203	-4.883032909849957	41.25405368160424	151.2721426273155	0	0	24.26242383221211	-10.59755544103111	-6.541997435672134	46.84524249248916	128.160543859701	0	0
0.12	-5.021671692992552	-0.7197902119784054	21.39845605860264	0	0.9399999999999999	0	34.54333793407671	-15.61884616082119	-10.93545485405832	48.27056719398098	0.8424803293401285	0	0	0	34.54333793407671	-15.61884616082119	-10.93545485405832	48.27056719398098	0.8424803293401285	0	0	0	-2.373276921614379	-2.265195867134357	3.49574563983394	30.88106477285714	-5.340366187492037	-4.920924941480779	41.18261046606629	151.3930797356885	0	0	24.2830284206618	-10.60381122641802	-6.596964382976078	46.80999989971252	128.3312274019061	0	0
0.14	-4.998589612700608	-0.7055643286168605	21.41979193504248	0	0.9399999999999999	0	34.54751210779538	-15.61684475493271	-10.93495607564474	48.27265942114144	0.8425168455927782	0	0	0	34.54751210779538	-15.61684475493271	-10.93495607564474	48.27265942114144	0.8425168455927782	0	0	0	-2.347366639396599	-2.259449485862347	3.497272537738946	30.82635476329789	-5.354853124530825	-4.935627697888061	41.16915724238687	151.4529427075048	0	0	24.25383809095298	-10.59109573484401	-6.621093099136372	46.7947709277845	128.3402984781513	0	0
0.16	-4.981630348308588	-0.6972094452889831	21.43408422263114	0	0.9399999999999999	0	34.56103571998808	-15.59462104795239	-10.93246643562783	48.27859247250867	0.8426203968738263	0	0	0	34.56103571998808	-15.59462104795239	-10.93246643562783	48.27859247250867	0.8426203968738263	0	0	0	-2.330830500743757	-2.254714612324477	3.494884850025513	30.80397924339165	-5.37763739629919	-4.927313874838181	41.19148105159608	151.3975112206762	0	0	24.21602069544264	-10.58732042738287	-6.629660947342198	46.80538372003187	128.3046682267853	0	0
0.18	-4.983552541627351	-0.6994643917860828	21.43887232875559	0	0.9399999999999999	0	34.58617931188758	-15.55392930614733	-10.92788226562273	48.28964972469768	0.8428133823307478	0	0	0	34.58617931188758	-15.55392930614733	-10.92788226562273	48.28964972469768	0.8428133823307478	0	0	0	-2.337785891457029	-2.250653769328526	3.496940387148288	30.80518212750761	-5.393956626329111	-4.956302718431377	41.25396816748697	151.2682046973918	0	0	24.20970273447351	-10.59560003845554	-6.639072811012788	46.85208745688703	128.2227645451993	0	0
0.2	-4.991814052459763	-0.7118912238480867	21.4418255789535	0	0.9399999999999999	0	34.59760506856016	-15.53460912562691	-10.92574891452441	48.2946137362821	0.8429000206770031	0	0	0	34.59760506856016	-15.53460912562691	-10.92574891452441	48.2946137362821	0.8429000206770031	0	0	0	-2.351982065804356	-2.256674262022682	3.497342715542755	30.81222199613405	-5.413329481694526	-4.961935729245615	41.27564279609854	151.2311907465876	0	0	24.22541432195111	-10.61069020924404	-6.623535259100989	46.86961555824619	128.1969562097933	0	0
0.22	-4.989980559281036	-0.702448556685428	21.43547535563152	0	0.9399999999999999	0	34.59539132673044	-15.54171566943789	-10.92635263008949	48.2938530240959	0.8428867437446937	0	0	0	34.59539132673044	-15.54171566943789	-10.92635263008949	48.2938530240959	0.8428867437446937	0	0	0	-2.346453356026523	-2.249336607577629	3.505371095670144	30.79400473389087	-5.403886419023935	-5.004771256685931	41.23498463256969	151.3791106191519	0	0	24.23151094280823	-10.60206746759116	-6.633705472677046	46.81191876882997	128.1786066165165	0	0
0.24	-4.996230134826064	-0.702423393953902	21.43505062243816	0	0.9399999999999999	0	34.60834314990162	-15.51579857022875	-10.92371667452314	48.29932435432899	0.8429822364717251	0	0	0	34.60834314990162	-15.51579857022875	-10.92371667452314	48.29932435432899	0.8429822364717251	0	0	0	-2.354384322268492	-2.244252076260541	3.505476886208409	30.79130556885335	-5.428389866945238	-4.994433187825503	41.26781125960611	151.3369450404212	0	0	24.23372007900578	-10.60162408088702	-6.61852795523804	46.80864812014747	128.0434620770902	0	0
0.26	-4.998447772486913	-0.7144459748338599	21.44974541677337	0	0.9399999999999999	0	34.62535061723464	-15.48184536355214	-10.92025367844377	48.3064880190562	0.843107266007724	0	0	0	34.62535061723464	-15.48184536355214	-10.92025367844377	48.3064880190562	0.843107266007724	0	0	0	-2.363622546844794	-2.250984244113876	3.504537260638438	30.76712053478769	-5.459140758455676	-4.961973144824261	41.32840323579129	151.2113516361694	0	-5.38806921148701e-36	24.24495361467433	-10.61622584345287	-6.584564101610302	46.84630561899373	127.9882245883422	0	-5.38806921148701e-36
0.28	-4.993553897960016	-0.7124478455711081	21.44467934950598	0	0.9399999999999999	0	34.65151383322846	-15.44613482700507	-10.9158648258229	48.3183279183763	0.8433139112339643	0	0	0	34.65151383322846	-15.44613482700507	-10.9158648258229	48.3183279183763	0.8433139112339643	0	0	0	-2.36291344964958	-2.245179336992547	3.509429904916692	30.70620374369557	-5.505666120668463	-4.942471702490664	41.40597531254415	151.1308311775531	0	0	24.25227619761519	-10.64019916198859	-6.558362957755375	46.88400043231073	127.9170438528163	0	0
0.3	-4.977371116277296	-0.7128595656532525	21.44442423088366	0	0.9399999999999999	0	34.65748869530183	-15.4449667765806	-10.91526564357545	48.32141546594847	0.8433677991049107	0	0	0	34.65748869530183	-15.4449667765806	-10.91526564357545	48.32141546594847	0.8433677991049107	0	0	0	-2.349013382365416	-2.250718464523754	3.525965253491873	30.69330162834013	-5.477316716691389	-4.986448192010829	41.42149210491604	151.1823935399366	0	0	24.20210679057942	-10.63976291719948	-6.523579798718981	46.82888218537119	127.926379911843	0	0
0.32	-4.990554100867725	-0.7209707721450355	21.40586982092987	0	0.9399999999999999	0	34.67391814058337	-15.42088728153916	-10.9124136592651	48.32877483492113	0.8434962443243527	0	0	0	34.67391814058337	-15.42088728153916	-10.9124136592651	48.32877483492113	0.8434962443243527	0	0	0	-2.367311341517149	-2.249030363136571	3.510595384159224	30.67392092103568	-5.50222658795016	-5.010860056169425	41.46456210559888	151.1329465746815	0	0	24.24046799169653	-10.66923088824451	-6.565549297815225	46.85059959677917	127.9000412577481	0	0
0.34	-4.959043484082039	-0.7064576182956006	21.39162092407657	0	0.9399999999999999	0	34.68718771640221	-15.39796752897012	-10.90990845727774	48.33454541154238	0.8435969598861321	0	0	0	34.68718771640221	-15.39796752897012	-10.90990845727774	48.33454541154238	0.8435969598861321	0	0	0	-2.334876708404178	-2.24432666552033	3.514894468478625	30.59245141099202	-5.530861950914055	-5.062604427605386	41.5099500369058	151.0674262002386	0	0	24.16660669652822	-10.64859794218496	-6.567396411203582	46.82287114612257	127.9111739880501	0	0
0.36	-4.959746263689574	-0.7097821744408184	21.36381355384262	0	0.9399999999999999	0	34.69017359130416	-15.39253230813287	-10.90933039044461	48.33583116778735	0.8436194005659851	0	0	0	34.69017359130416	-15.39253230813287	-10.90933039044461	48.33583116778735	0.8436194005659851	0	0	0	-2.337022601971001	-2.247540530739197	3.537780857148303	30.49116367264592	-5.603035256404473	-5.116600797729991	41.72772130619591	150.6751944924578	0	0	24.16845052913207	-10.65917804501603	-6.540497765349079	46.83396010470364	127.8733462138854	0	0
0.3800000000000001	-4.982365297080047	-0.730162868871545	21.32618151997682	0	0.9399999999999999	0	34.69323584866509	-15.38693578756658	-10.90873596961645	48.33714412510378	0.8436423159940949	0	0	0	34.69323584866509	-15.38693578756658	-10.90873596961645	48.33714412510378	0.8436423159940949	0	0	0	-2.36606228901517	-2.257529730627033	3.536617469938093	30.4681751805822	-5.60743959782196	-5.214696818587857	41.86931235902334	150.5382627529335	0	0	24.21958732904472	-10.70213667858151	-6.530615455414169	46.84565596865448	127.8699281543731	0	0
0.4000000000000001	-4.986820556092214	-0.7340567407382227	21.29995541682837	0	0.9399999999999999	0	34.69646549546259	-15.38104474440838	-10.90810973295667	48.33853052758425	0.8436665132821368	0	0	0	34.69646549546259	-15.38104474440838	-10.90810973295667	48.33853052758425	0.8436665132821368	0	0	0	-2.371967396787589	-2.25968442014725	3.555078498599084	30.38113997639743	-5.645636040167755	-5.38243108961364	42.03156366548274	150.4173063880859	0	0	24.23147165985656	-10.70653293054993	-6.533617774607617	46.84368473240764	127.8682299748316	0	0
